<svg width="131" height="113" viewBox="0 0 131 113" fill="none" xmlns="http://www.w3.org/2000/svg">
<g filter="url(#filter0_d_8_695)">
<path d="M23.6423 31.7752C23.6423 27.2835 27.2836 23.6423 31.7752 23.6423H99.2104C103.702 23.6423 107.343 27.2836 107.343 31.7752V80.5726C107.343 85.0642 103.702 88.7055 99.2104 88.7055H31.7752C27.2836 88.7055 23.6423 85.0642 23.6423 80.5726V31.7752Z" fill="url(#paint0_linear_8_695)"/>
<path d="M79.2168 73.4559H50.752V40.2469H79.2168V73.4559Z" stroke="#E5E7EB"/>
<g clip-path="url(#clip0_8_695)">
<path d="M50.752 45.33C50.752 43.6462 52.118 42.2802 53.8018 42.2802H59.9015C61.5852 42.2802 62.9513 43.6462 62.9513 45.33V51.4297C62.9513 53.1134 61.5852 54.4795 59.9015 54.4795H53.8018C52.118 54.4795 50.752 53.1134 50.752 51.4297V45.33ZM54.8184 46.3466V50.413H58.8848V46.3466H54.8184ZM50.752 61.5958C50.752 59.912 52.118 58.5459 53.8018 58.5459H59.9015C61.5852 58.5459 62.9513 59.912 62.9513 61.5958V67.6954C62.9513 69.3792 61.5852 70.7453 59.9015 70.7453H53.8018C52.118 70.7453 50.752 69.3792 50.752 67.6954V61.5958ZM54.8184 62.6124V66.6788H58.8848V62.6124H54.8184ZM70.0676 42.2802H76.1672C77.851 42.2802 79.2171 43.6462 79.2171 45.33V51.4297C79.2171 53.1134 77.851 54.4795 76.1672 54.4795H70.0676C68.3838 54.4795 67.0177 53.1134 67.0177 51.4297V45.33C67.0177 43.6462 68.3838 42.2802 70.0676 42.2802ZM75.1506 46.3466H71.0842V50.413H75.1506V46.3466ZM67.0177 59.5625C67.0177 59.0034 67.4752 58.5459 68.0343 58.5459H72.1008C72.6599 58.5459 73.1174 59.0034 73.1174 59.5625C73.1174 60.1217 73.5749 60.5792 74.134 60.5792H76.1672C76.7264 60.5792 77.1838 60.1217 77.1838 59.5625C77.1838 59.0034 77.6413 58.5459 78.2005 58.5459C78.7596 58.5459 79.2171 59.0034 79.2171 59.5625V65.6622C79.2171 66.2213 78.7596 66.6788 78.2005 66.6788H74.134C73.5749 66.6788 73.1174 66.2213 73.1174 65.6622C73.1174 65.1031 72.6599 64.6456 72.1008 64.6456C71.5417 64.6456 71.0842 65.1031 71.0842 65.6622V69.7287C71.0842 70.2878 70.6267 70.7453 70.0676 70.7453H68.0343C67.4752 70.7453 67.0177 70.2878 67.0177 69.7287V59.5625ZM74.134 70.7453C73.8644 70.7453 73.6058 70.6382 73.4152 70.4475C73.2245 70.2569 73.1174 69.9983 73.1174 69.7287C73.1174 69.459 73.2245 69.2005 73.4152 69.0098C73.6058 68.8192 73.8644 68.712 74.134 68.712C74.4036 68.712 74.6622 68.8192 74.8529 69.0098C75.0435 69.2005 75.1506 69.459 75.1506 69.7287C75.1506 69.9983 75.0435 70.2569 74.8529 70.4475C74.6622 70.6382 74.4036 70.7453 74.134 70.7453ZM78.2005 70.7453C77.9308 70.7453 77.6723 70.6382 77.4816 70.4475C77.291 70.2569 77.1838 69.9983 77.1838 69.7287C77.1838 69.459 77.291 69.2005 77.4816 69.0098C77.6723 68.8192 77.9308 68.712 78.2005 68.712C78.4701 68.712 78.7287 68.8192 78.9193 69.0098C79.11 69.2005 79.2171 69.459 79.2171 69.7287C79.2171 69.9983 79.11 70.2569 78.9193 70.4475C78.7287 70.6382 78.4701 70.7453 78.2005 70.7453Z" fill="white"/>
</g>
</g>
<defs>
<filter id="filter0_d_8_695" x="-4.76837e-05" y="-4.76837e-05" width="130.986" height="112.348" filterUnits="userSpaceOnUse" color-interpolation-filters="sRGB">
<feFlood flood-opacity="0" result="BackgroundImageFix"/>
<feColorMatrix in="SourceAlpha" type="matrix" values="0 0 0 0 0 0 0 0 0 0 0 0 0 0 0 0 0 0 127 0" result="hardAlpha"/>
<feOffset/>
<feGaussianBlur stdDeviation="11.8212"/>
<feColorMatrix type="matrix" values="0 0 0 0 0.478431 0 0 0 0 0.796078 0 0 0 0 1 0 0 0 0.45 0"/>
<feBlend mode="normal" in2="BackgroundImageFix" result="effect1_dropShadow_8_695"/>
<feBlend mode="normal" in="SourceGraphic" in2="effect1_dropShadow_8_695" result="shape"/>
</filter>
<linearGradient id="paint0_linear_8_695" x1="53.2351" y1="46.6456" x2="97.8197" y2="-10.7106" gradientUnits="userSpaceOnUse">
<stop stop-color="#7ACBFF"/>
<stop offset="1" stop-color="#4DA6FF"/>
</linearGradient>
<clipPath id="clip0_8_695">
<path d="M50.752 40.2469H79.2171V72.7785H50.752V40.2469Z" fill="white"/>
</clipPath>
</defs>
</svg>
