<svg width="24" height="24" viewBox="0 0 24 24" fill="none" xmlns="http://www.w3.org/2000/svg">
<path d="M7.98603 19.3247C7.85314 18.947 7.43998 18.748 7.06225 18.8801C6.68453 19.013 6.48559 19.4262 6.61848 19.8039L7.07997 21.1199C6.10787 20.6334 5.21791 20.0004 4.43507 19.2176C2.50697 17.2903 1.44547 14.7267 1.44547 11.9989C1.44547 9.27101 2.50697 6.70746 4.43507 4.77936C5.7535 3.46094 7.39891 2.53233 9.19251 2.09339C9.58151 1.99835 9.8191 1.60694 9.72406 1.21713C9.62983 0.82893 9.23922 0.589729 8.8478 0.68557C6.79647 1.18733 4.91589 2.24802 3.40981 3.7541C-1.1366 8.30052 -1.1366 15.698 3.40981 20.2444C4.23856 21.0732 5.16959 21.7586 6.18599 22.2974L5.15831 22.5752C4.77173 22.6799 4.543 23.0778 4.6477 23.4644C4.73468 23.7865 5.02784 24 5.34677 24C5.40959 24 5.47322 23.9911 5.53604 23.975L8.50954 23.1712C8.70444 23.1189 8.86793 22.9868 8.96216 22.8096C9.05559 22.6308 9.0717 22.4222 9.00485 22.2313L7.98603 19.3247Z" fill="white"/>
<path d="M19.9011 3.75424C19.0723 2.92549 18.1413 2.24011 17.1249 1.7013L18.1526 1.42344C18.5391 1.31874 18.7679 0.920882 18.6632 0.534296C18.5593 0.148515 18.1614 -0.0761888 17.774 0.0236794L14.8005 0.827457C14.6056 0.879807 14.4421 1.01189 14.3479 1.18908C14.2553 1.36787 14.2392 1.57727 14.306 1.76735L15.3248 4.67319C15.4295 4.97118 15.7098 5.15884 16.0086 5.15884C16.0884 5.15884 16.1689 5.14515 16.2486 5.11776C16.6263 4.98487 16.8253 4.57171 16.6924 4.19398L16.2309 2.87798C17.2038 3.36443 18.093 3.99747 18.8758 4.7803C20.8039 6.70841 21.8654 9.27196 21.8654 11.9998C21.8654 14.7277 20.8039 17.2912 18.8758 19.2193C17.5574 20.5377 15.912 21.4663 14.1184 21.9053C13.7294 22.0003 13.4918 22.3917 13.5868 22.7815C13.6674 23.1126 13.9637 23.3348 14.2907 23.3348C14.3471 23.3348 14.4059 23.3276 14.4631 23.3139C16.5144 22.8122 18.395 21.7515 19.9011 20.2454C24.4475 15.6982 24.4475 8.29985 19.9011 3.75424Z" fill="white"/>
<path d="M18.7463 11.999C18.7463 8.08968 15.5658 4.90759 11.6557 4.90759C7.74551 4.90759 4.56503 8.08968 4.56503 11.999C4.56503 15.9084 7.74551 19.0905 11.6557 19.0905C15.5658 19.0905 18.7463 15.9084 18.7463 11.999ZM14.2007 13.9626C14.0581 14.147 13.8431 14.2453 13.6265 14.2453C13.4718 14.2453 13.3164 14.1953 13.1843 14.0939L11.2127 12.5733C11.0347 12.4356 10.9308 12.2237 10.9308 11.999V9.0038C10.9308 8.60352 11.2554 8.27895 11.6557 8.27895C12.056 8.27895 12.3805 8.60352 12.3805 9.0038V11.6423L14.0702 12.9446C14.3859 13.1902 14.4447 13.6453 14.2007 13.9626Z" fill="white"/>
</svg>
