<svg width="25" height="24" viewBox="0 0 25 24" fill="none" xmlns="http://www.w3.org/2000/svg">
<path d="M12.196 7.56798C9.16829 7.56798 6.14166 7.64976 3.11615 7.81333C1.57687 7.90385 0.190519 9.20159 0.0976196 10.678C-0.101519 14.1467 0.00329055 16.6674 0.418719 20.1309C0.606425 21.6035 2.01802 22.9565 3.4887 23.1013C6.38622 23.3671 9.28866 23.5001 12.196 23.5001C15.1034 23.5001 18.0058 23.3671 20.9034 23.1013C22.374 22.9584 23.7856 21.6035 23.9733 20.1309C24.3888 16.6674 24.4936 14.1467 24.2968 10.678C24.2063 9.20111 22.8176 7.90385 21.2783 7.81095C18.2521 7.64548 15.2247 7.56449 12.196 7.56798Z" fill="white"/>
<path d="M3.03626 6.47937H3.04388C6.0505 6.31501 9.13096 6.23402 12.1962 6.23402C15.2614 6.23402 18.3419 6.31739 21.3485 6.48175H21.3561C22.4895 6.54988 23.5423 7.06392 24.3203 7.83428C24.3127 7.66658 24.3043 7.50365 24.2951 7.34548C24.2045 5.86861 22.8182 4.57135 21.2761 4.47845C18.1 4.30504 14.9225 4.22309 11.7436 4.23262C11.5854 4.233 11.4291 4.19912 11.2852 4.13333C11.1414 4.06754 11.0135 3.9714 10.9103 3.8515C10.1005 2.90725 9.31486 1.97206 8.56356 1.05497C8.41488 0.870712 8.22449 0.724487 8.0081 0.62839C7.79172 0.532293 7.55557 0.489085 7.31918 0.502339C6.0405 0.567766 4.76293 0.659078 3.48647 0.776274C2.01579 0.919197 0.604191 2.27315 0.416962 3.74621C0.27404 4.96582 0.163989 6.34978 0.0949097 7.81236C0.870027 7.05154 1.91384 6.54702 3.03626 6.47937Z" fill="white"/>
</svg>
