<svg width="23" height="23" viewBox="0 0 23 23" fill="none" xmlns="http://www.w3.org/2000/svg">
<path d="M0.766667 7.66667C0.563334 7.66667 0.368329 7.58589 0.224551 7.44211C0.0807735 7.29834 0 7.10333 0 6.9V2.3C0 1.69 0.242321 1.10499 0.673654 0.673654C1.10499 0.242321 1.69 0 2.3 0H6.9C7.10333 0 7.29834 0.0807735 7.44211 0.224551C7.58589 0.368329 7.66667 0.563334 7.66667 0.766667C7.66667 0.969999 7.58589 1.165 7.44211 1.30878C7.29834 1.45256 7.10333 1.53333 6.9 1.53333H2.3C2.09667 1.53333 1.90166 1.61411 1.75788 1.75788C1.61411 1.90166 1.53333 2.09667 1.53333 2.3V6.9C1.53333 7.10333 1.45256 7.29834 1.30878 7.44211C1.165 7.58589 0.969999 7.66667 0.766667 7.66667Z" fill="white"/>
<path d="M6.9 23H2.3C1.69 23 1.10499 22.7577 0.673654 22.3264C0.242321 21.8951 0 21.31 0 20.7V16.1C0 15.8967 0.0807735 15.7017 0.224551 15.5579C0.368329 15.4141 0.563334 15.3334 0.766667 15.3334C0.969999 15.3334 1.165 15.4141 1.30878 15.5579C1.45256 15.7017 1.53333 15.8967 1.53333 16.1V20.7C1.53333 20.9034 1.61411 21.0984 1.75788 21.2422C1.90166 21.3859 2.09667 21.4667 2.3 21.4667H6.9C7.10333 21.4667 7.29834 21.5475 7.44211 21.6913C7.58589 21.835 7.66667 22.03 7.66667 22.2334C7.66667 22.4367 7.58589 22.6317 7.44211 22.7755C7.29834 22.9193 7.10333 23 6.9 23Z" fill="white"/>
<path d="M22.2333 7.66667C22.0299 7.66667 21.8349 7.58589 21.6911 7.44211C21.5474 7.29834 21.4666 7.10333 21.4666 6.9V2.3C21.4666 2.09667 21.3858 1.90166 21.242 1.75788C21.0983 1.61411 20.9033 1.53333 20.6999 1.53333H16.0999C15.8966 1.53333 15.7016 1.45256 15.5578 1.30878C15.414 1.165 15.3333 0.969999 15.3333 0.766667C15.3333 0.563334 15.414 0.368329 15.5578 0.224551C15.7016 0.0807735 15.8966 0 16.0999 0H20.6999C21.3099 0 21.8949 0.242321 22.3263 0.673654C22.7576 1.10499 22.9999 1.69 22.9999 2.3V6.9C22.9999 7.10333 22.9191 7.29834 22.7754 7.44211C22.6316 7.58589 22.4366 7.66667 22.2333 7.66667Z" fill="white"/>
<path d="M20.6999 23H16.0999C15.8966 23 15.7016 22.9193 15.5578 22.7755C15.414 22.6317 15.3333 22.4367 15.3333 22.2334C15.3333 22.03 15.414 21.835 15.5578 21.6913C15.7016 21.5475 15.8966 21.4667 16.0999 21.4667H20.6999C20.9033 21.4667 21.0983 21.3859 21.242 21.2422C21.3858 21.0984 21.4666 20.9034 21.4666 20.7V16.1C21.4666 15.8967 21.5474 15.7017 21.6911 15.5579C21.8349 15.4141 22.0299 15.3334 22.2333 15.3334C22.4366 15.3334 22.6316 15.4141 22.7754 15.5579C22.9191 15.7017 22.9999 15.8967 22.9999 16.1V20.7C22.9999 21.31 22.7576 21.8951 22.3263 22.3264C21.8949 22.7577 21.3099 23 20.6999 23Z" fill="white"/>
<path d="M15.3334 3.83337H7.66676C7.05676 3.83337 6.47175 4.07569 6.04041 4.50703C5.60908 4.93836 5.36676 5.52338 5.36676 6.13337V16.8667C5.36676 17.4767 5.60908 18.0617 6.04041 18.4931C6.47175 18.9244 7.05676 19.1667 7.66676 19.1667H15.3334C15.9434 19.1667 16.5284 18.9244 16.9598 18.4931C17.3911 18.0617 17.6334 17.4767 17.6334 16.8667V6.13337C17.6334 5.52338 17.3911 4.93836 16.9598 4.50703C16.5284 4.07569 15.9434 3.83337 15.3334 3.83337ZM13.8001 15.3334H9.20009C8.99676 15.3334 8.80176 15.2526 8.65798 15.1088C8.5142 14.965 8.43343 14.77 8.43343 14.5667C8.43343 14.3634 8.5142 14.1684 8.65798 14.0246C8.80176 13.8808 8.99676 13.8 9.20009 13.8H13.8001C14.0034 13.8 14.1984 13.8808 14.3422 14.0246C14.486 14.1684 14.5668 14.3634 14.5668 14.5667C14.5668 14.77 14.486 14.965 14.3422 15.1088C14.1984 15.2526 14.0034 15.3334 13.8001 15.3334ZM13.8001 12.2667H9.20009C8.99676 12.2667 8.80176 12.1859 8.65798 12.0422C8.5142 11.8984 8.43343 11.7034 8.43343 11.5C8.43343 11.2967 8.5142 11.1017 8.65798 10.9579C8.80176 10.8141 8.99676 10.7334 9.20009 10.7334H13.8001C14.0034 10.7334 14.1984 10.8141 14.3422 10.9579C14.486 11.1017 14.5668 11.2967 14.5668 11.5C14.5668 11.7034 14.486 11.8984 14.3422 12.0422C14.1984 12.1859 14.0034 12.2667 13.8001 12.2667ZM13.8001 9.20004H9.20009C8.99676 9.20004 8.80176 9.11927 8.65798 8.97549C8.5142 8.83171 8.43343 8.63671 8.43343 8.43337C8.43343 8.23004 8.5142 8.03504 8.65798 7.89126C8.80176 7.74748 8.99676 7.66671 9.20009 7.66671H13.8001C14.0034 7.66671 14.1984 7.74748 14.3422 7.89126C14.486 8.03504 14.5668 8.23004 14.5668 8.43337C14.5668 8.63671 14.486 8.83171 14.3422 8.97549C14.1984 9.11927 14.0034 9.20004 13.8001 9.20004Z" fill="white"/>
</svg>
